<svg xmlns="http://www.w3.org/2000/svg" xmlns:xlink="http://www.w3.org/1999/xlink" width="755" zoomAndPan="magnify" viewBox="0 0 567 567.000005" height="755" preserveAspectRatio="xMidYMid meet" version="1.0"><defs><clipPath id="d5ae2575cd"><path d="M 11 490.386719 L 554 490.386719 L 554 525 L 11 525 Z M 11 490.386719 " clip-rule="nonzero"/></clipPath></defs><path fill="#ffffff" d="M 85.226562 159.785156 C 85.011719 162.386719 84.898438 165.007812 84.457031 167.582031 C 84 170.265625 84.125 173.054688 83.605469 175.71875 C 83.089844 178.375 82.671875 180.910156 82.449219 183.625 C 82.242188 186.171875 82.039062 188.691406 81.636719 191.214844 C 79.917969 201.996094 79.113281 213.050781 78.402344 223.9375 C 77.71875 234.496094 76.757812 245.015625 76.167969 255.585938 C 75.574219 266.128906 75.171875 276.679688 74.777344 287.234375 C 73.191406 329.71875 73.183594 372.179688 73.921875 414.679688 C 74.128906 426.527344 74.375 438.375 74.660156 450.214844 C 74.953125 462.3125 75.054688 474.578125 76.335938 486.613281 C 76.722656 490.28125 77.574219 493.425781 80.273438 496.121094 C 82.609375 498.457031 86.433594 500.210938 89.785156 500.0625 C 97.277344 499.726562 102.976562 494.152344 103.234375 486.609375 C 103.597656 475.964844 103.050781 465.191406 102.667969 454.546875 C 102.289062 443.855469 101.9375 433.167969 101.617188 422.476562 C 100.992188 401.386719 100.777344 380.28125 100.050781 359.191406 C 99.3125 337.808594 98.789062 316.414062 97.988281 295.03125 C 97.195312 273.945312 96.898438 252.785156 95.324219 231.738281 C 94.871094 225.679688 94.890625 219.589844 94.414062 213.535156 C 93.957031 207.757812 93.65625 201.972656 93.210938 196.195312 C 92.964844 193.003906 92.414062 189.863281 92.277344 186.65625 C 92.148438 183.679688 92.226562 180.609375 91.691406 177.671875 C 91.183594 174.875 91.28125 172.144531 91.039062 169.320312 C 90.761719 166.132812 90.53125 162.992188 90.421875 159.785156 C 90.304688 156.40625 85.496094 156.480469 85.226562 159.785156 Z M 85.226562 159.785156 " fill-opacity="1" fill-rule="nonzero"/><path fill="#ffffff" d="M 437.074219 159.785156 C 436.859375 162.386719 436.746094 165.007812 436.304688 167.582031 C 435.847656 170.265625 435.972656 173.054688 435.453125 175.71875 C 434.9375 178.375 434.523438 180.910156 434.296875 183.625 C 434.089844 186.171875 433.886719 188.691406 433.484375 191.214844 C 431.765625 201.996094 430.960938 213.050781 430.25 223.9375 C 429.566406 234.496094 428.609375 245.015625 428.015625 255.585938 C 427.425781 266.128906 427.019531 276.679688 426.625 287.234375 C 425.039062 329.71875 425.03125 372.179688 425.769531 414.679688 C 425.976562 426.527344 426.222656 438.375 426.507812 450.214844 C 426.800781 462.3125 426.902344 474.578125 428.183594 486.613281 C 428.570312 490.28125 429.421875 493.425781 432.121094 496.121094 C 434.457031 498.457031 438.28125 500.210938 441.632812 500.0625 C 449.125 499.726562 454.824219 494.152344 455.082031 486.609375 C 455.445312 475.964844 454.898438 465.191406 454.519531 454.546875 C 454.136719 443.855469 453.785156 433.167969 453.464844 422.476562 C 452.839844 401.386719 452.625 380.28125 451.898438 359.191406 C 451.160156 337.808594 450.640625 316.414062 449.835938 295.03125 C 449.042969 273.945312 448.746094 252.785156 447.171875 231.738281 C 446.71875 225.679688 446.738281 219.589844 446.261719 213.535156 C 445.804688 207.757812 445.503906 201.972656 445.058594 196.195312 C 444.8125 193.003906 444.261719 189.863281 444.125 186.65625 C 443.996094 183.679688 444.074219 180.609375 443.539062 177.671875 C 443.03125 174.875 443.128906 172.144531 442.886719 169.320312 C 442.613281 166.132812 442.378906 162.992188 442.269531 159.785156 C 442.15625 156.40625 437.347656 156.480469 437.074219 159.785156 Z M 437.074219 159.785156 " fill-opacity="1" fill-rule="nonzero"/><path fill="#ffffff" d="M 84.6875 496.773438 C 87.558594 497.496094 90.394531 498.449219 93.332031 498.789062 C 96.324219 499.132812 99.25 499.578125 102.21875 500.066406 C 108.113281 501.042969 114.085938 501.695312 120.03125 502.28125 C 131.796875 503.441406 143.566406 504.574219 155.367188 505.285156 C 178.636719 506.683594 201.945312 507.902344 225.253906 508.363281 C 272.125 509.289062 319.074219 508.945312 365.910156 506.824219 C 379.132812 506.222656 392.351562 505.511719 405.558594 504.6875 C 412.164062 504.277344 418.769531 503.835938 425.367188 503.367188 C 428.523438 503.144531 431.683594 502.914062 434.839844 502.671875 C 436.558594 502.546875 438.289062 502.453125 440.003906 502.277344 C 442.335938 502.042969 444.28125 501.476562 446.457031 500.660156 C 449.710938 499.441406 452.570312 496.605469 452.40625 492.847656 C 452.253906 489.445312 450.023438 485.761719 446.457031 485.035156 C 444.660156 484.667969 442.695312 484.105469 440.863281 484.0625 C 439.441406 484.027344 437.984375 484.246094 436.558594 484.355469 C 433.402344 484.59375 430.25 484.828125 427.089844 485.054688 C 421.347656 485.464844 415.609375 485.855469 409.867188 486.226562 C 398.09375 486.980469 386.316406 487.652344 374.535156 488.226562 C 351.257812 489.367188 327.960938 490.269531 304.660156 490.816406 C 257.941406 491.914062 211.136719 491.683594 164.425781 490.449219 C 151.347656 490.105469 138.277344 489.839844 125.199219 489.570312 C 118.589844 489.4375 111.996094 489.351562 105.386719 489.378906 C 102.21875 489.394531 99.085938 489.578125 95.914062 489.488281 C 92.417969 489.390625 89.0625 489.835938 85.582031 490.167969 C 82.023438 490.511719 80.761719 495.789062 84.6875 496.773438 Z M 84.6875 496.773438 " fill-opacity="1" fill-rule="nonzero"/><path fill="#ffffff" d="M 15.042969 227.585938 C 19.984375 225.226562 24.203125 221.90625 28.5625 218.617188 C 33.117188 215.179688 37.738281 211.835938 42.199219 208.28125 C 50.492188 201.671875 58.941406 195.34375 66.929688 189.21875 C 84.109375 176.046875 101.394531 162.980469 118.78125 150.082031 C 153.425781 124.375 188.632812 99.34375 224.640625 75.582031 C 234.714844 68.933594 244.855469 62.382812 255.050781 55.925781 C 260.265625 52.625 265.453125 49.289062 270.675781 46 C 276.429688 42.371094 282.207031 38.914062 287.566406 34.710938 C 289.394531 33.277344 290.644531 29.761719 290.542969 27.523438 C 290.441406 25.226562 289.769531 23.191406 288.359375 21.363281 C 285.09375 17.136719 279.914062 16.570312 275.25 18.746094 C 270.269531 21.066406 265.683594 24.179688 261.019531 27.082031 C 256.351562 29.984375 251.683594 32.898438 247.050781 35.859375 C 238.007812 41.640625 229.0625 47.578125 220.144531 53.554688 C 202.082031 65.648438 184.222656 78.054688 166.582031 90.753906 C 130.917969 116.429688 96.21875 143.589844 63.246094 172.644531 C 54.207031 180.609375 45.414062 188.808594 36.511719 196.925781 C 31.960938 201.078125 27.585938 205.390625 23.222656 209.742188 C 18.832031 214.117188 14.417969 218.367188 11.070312 223.613281 C 9.386719 226.25 12.601562 228.75 15.042969 227.585938 Z M 15.042969 227.585938 " fill-opacity="1" fill-rule="nonzero"/><path fill="#ffffff" d="M 275.785156 23.382812 C 277.171875 25.660156 278.398438 28.28125 280.253906 30.21875 C 282.101562 32.144531 284.546875 33.875 286.105469 35.828125 C 287.976562 38.175781 290.339844 40.113281 292.542969 42.160156 C 294.742188 44.203125 296.90625 46.265625 299.195312 48.207031 C 307.75 55.457031 316.261719 62.738281 324.9375 69.835938 C 342.542969 84.242188 359.941406 98.886719 377.398438 113.464844 C 412.464844 142.746094 446.855469 172.84375 480.863281 203.34375 C 490.367188 211.867188 499.820312 220.449219 509.21875 229.089844 C 513.871094 233.363281 518.503906 237.648438 523.128906 241.949219 C 528.480469 246.925781 533.582031 252.089844 539.917969 255.828125 C 543.914062 258.183594 549.84375 257.640625 553.066406 254.128906 C 556.179688 250.738281 557.527344 245.050781 554.765625 240.980469 C 552.84375 238.152344 550.847656 235.378906 548.414062 232.957031 C 546.277344 230.832031 543.988281 228.839844 541.777344 226.789062 C 537.546875 222.871094 533.304688 218.964844 529.054688 215.070312 C 520.652344 207.371094 512.210938 199.71875 503.726562 192.113281 C 486.648438 176.804688 469.417969 161.679688 451.882812 146.898438 C 434.445312 132.199219 416.84375 117.6875 399.085938 103.371094 C 394.59375 99.75 390.089844 96.140625 385.578125 92.539062 C 383.429688 90.828125 381.289062 89.105469 379.125 87.410156 C 375.054688 84.210938 376.914062 85.699219 377.816406 86.402344 C 376.671875 85.511719 375.523438 84.628906 374.375 83.742188 C 373.074219 82.738281 371.773438 81.738281 370.472656 80.734375 C 361.578125 73.886719 352.644531 67.089844 343.675781 60.339844 C 333.398438 52.601562 323.019531 45.066406 312.429688 37.75 C 307.257812 34.175781 301.929688 30.910156 296.582031 27.601562 C 295.058594 26.660156 293.632812 26.242188 292.148438 25.464844 C 290.710938 24.71875 289.351562 23.722656 287.980469 22.867188 C 285.113281 21.078125 281.933594 20.429688 278.710938 19.566406 C 276.566406 18.992188 274.589844 21.421875 275.785156 23.382812 Z M 275.785156 23.382812 " fill-opacity="1" fill-rule="nonzero"/><path fill="#ffffff" d="M 344.824219 67.117188 C 346.320312 63.859375 347.515625 60.8125 348.191406 57.269531 C 348.859375 53.738281 349.628906 50.234375 350.683594 46.796875 C 351.703125 43.457031 352.621094 40.09375 353.832031 36.8125 C 354.15625 35.925781 354.503906 35.046875 354.855469 34.171875 C 355.179688 33.355469 354.929688 33.96875 354.855469 34.136719 C 354.976562 33.855469 355.101562 33.578125 355.226562 33.296875 C 355.835938 31.964844 356.625 30.765625 357.308594 29.484375 C 357.710938 28.726562 357.050781 29.785156 356.96875 29.875 C 357.171875 29.652344 357.359375 29.421875 357.566406 29.199219 C 357.773438 28.980469 357.996094 28.78125 358.207031 28.570312 C 359.410156 27.367188 358.03125 28.84375 357.9375 28.726562 C 357.652344 28.351562 360.175781 28.203125 358.269531 28.425781 C 358.382812 28.414062 359.5625 28.054688 358.648438 28.261719 C 357.71875 28.46875 359.722656 28.242188 359.816406 28.242188 C 363.367188 28.277344 366.953125 28.972656 370.476562 29.402344 C 378.179688 30.34375 385.882812 31.289062 393.585938 32.230469 C 401.144531 33.15625 408.707031 34.078125 416.265625 35.007812 C 418.121094 35.234375 419.972656 35.460938 421.828125 35.6875 C 422.683594 35.792969 423.542969 35.898438 424.398438 36 C 424.96875 36.070312 425.539062 36.140625 426.109375 36.210938 C 427.171875 36.34375 426.914062 36.394531 426.019531 36.203125 C 427.296875 36.472656 425.539062 35.804688 425.132812 35.34375 C 424.515625 34.648438 424.308594 33.53125 423.863281 32.847656 C 423.847656 32.6875 423.828125 32.53125 423.8125 32.375 C 423.835938 32.695312 423.835938 33.019531 423.8125 33.339844 C 423.789062 34.015625 423.695312 34.679688 423.617188 35.351562 C 423.503906 36.320312 423.609375 35.414062 423.632812 35.238281 C 423.546875 35.925781 423.445312 36.613281 423.351562 37.300781 C 421.246094 52.371094 418.578125 67.367188 417.007812 82.511719 C 415.246094 99.515625 415.21875 116.695312 419 133.449219 C 419.917969 137.507812 424.824219 140.277344 428.773438 138.996094 C 433.046875 137.613281 435.285156 133.574219 434.324219 129.222656 C 433.910156 127.335938 433.535156 125.445312 433.214844 123.539062 C 433.125 122.996094 433.042969 122.453125 432.957031 121.910156 C 432.953125 121.898438 432.753906 120.558594 432.867188 121.339844 C 432.976562 122.117188 432.792969 120.78125 432.792969 120.765625 C 432.714844 120.089844 432.636719 119.40625 432.5625 118.726562 C 432.148438 114.78125 431.929688 110.816406 431.875 106.851562 C 431.757812 98.855469 432.285156 90.867188 433.140625 82.925781 C 433.335938 81.128906 433.546875 79.335938 433.773438 77.542969 C 433.894531 76.574219 434.015625 75.609375 434.144531 74.644531 C 433.976562 75.902344 434.167969 74.507812 434.191406 74.316406 C 434.269531 73.765625 434.347656 73.214844 434.425781 72.660156 C 434.996094 68.652344 435.613281 64.65625 436.238281 60.65625 C 437.5625 52.234375 438.894531 43.8125 439.96875 35.351562 C 440.621094 30.226562 439.140625 25.027344 434.582031 22.109375 C 430.808594 19.691406 425.71875 19.808594 421.398438 19.277344 C 413.265625 18.28125 405.140625 17.289062 397.007812 16.292969 C 388.734375 15.28125 380.460938 14.265625 372.1875 13.257812 C 363.746094 12.222656 353.914062 9.859375 347.097656 16.617188 C 341.214844 22.453125 339.378906 32.125 338.035156 39.972656 C 337.234375 44.648438 337.035156 49.433594 337.132812 54.175781 C 337.179688 56.53125 337.570312 58.769531 337.933594 61.089844 C 338.277344 63.296875 339.394531 65.183594 340.46875 67.117188 C 341.328125 68.664062 344.023438 68.859375 344.824219 67.117188 Z M 344.824219 67.117188 " fill-opacity="1" fill-rule="nonzero"/><path fill="#ffffff" d="M 138.566406 494.871094 C 142.296875 483.964844 142.648438 471.957031 143.445312 460.507812 C 144.242188 449.015625 145.128906 437.53125 146.097656 426.054688 C 148.007812 403.40625 149.566406 380.738281 151.777344 358.113281 C 153.035156 345.230469 154.453125 332.363281 155.828125 319.492188 C 153.941406 321.96875 152.054688 324.445312 150.167969 326.921875 C 151.292969 326.753906 152.417969 326.589844 153.542969 326.425781 C 154.105469 326.347656 154.667969 326.269531 155.230469 326.191406 C 155.324219 326.179688 156.722656 325.992188 155.722656 326.125 C 157.976562 325.828125 160.234375 325.554688 162.496094 325.296875 C 166.875 324.800781 171.265625 324.378906 175.65625 324.03125 C 184.585938 323.320312 193.542969 322.917969 202.496094 322.824219 C 211.453125 322.730469 220.410156 322.941406 229.351562 323.460938 C 231.257812 323.574219 233.15625 323.761719 235.058594 323.859375 C 233.292969 323.765625 235.714844 323.996094 236.167969 324.109375 C 236.566406 324.207031 236.957031 324.351562 237.359375 324.453125 C 236.40625 324.210938 236.734375 324.320312 237.488281 324.566406 C 238.214844 324.808594 237.253906 324.492188 237.183594 324.253906 C 237.417969 325.042969 237.605469 324.648438 237.242188 324.117188 C 237.476562 324.464844 237.699219 324.847656 237.875 325.226562 C 237.683594 324.808594 237.558594 324.046875 237.753906 325.25 C 237.820312 325.679688 237.9375 326.101562 238.011719 326.535156 C 237.984375 326.375 237.953125 325.335938 237.921875 326.183594 C 237.882812 327.210938 238.011719 328.285156 238.03125 329.320312 C 238.632812 364.050781 233.820312 398.609375 234.015625 433.335938 C 234.128906 453.027344 235.941406 472.839844 240.972656 491.921875 C 241.960938 495.671875 246.308594 498.324219 250.089844 497.097656 C 253.949219 495.847656 256.320312 492 255.265625 487.980469 C 254.121094 483.621094 253.132812 479.226562 252.3125 474.792969 C 251.941406 472.789062 251.605469 470.777344 251.296875 468.761719 C 251.214844 468.226562 251.136719 467.6875 251.058594 467.152344 C 250.828125 465.59375 250.941406 466.359375 250.988281 466.707031 C 250.808594 465.363281 250.644531 464.015625 250.492188 462.667969 C 249.5 453.882812 249.039062 445.042969 248.925781 436.207031 C 248.695312 418.1875 249.894531 400.1875 251.050781 382.214844 C 252.207031 364.34375 253.410156 346.417969 253.058594 328.496094 C 252.96875 323.714844 252.277344 319.101562 249.28125 315.226562 C 246.480469 311.597656 242.144531 309.726562 237.695312 309.097656 C 228.503906 307.800781 219.019531 307.726562 209.746094 307.625 C 188.425781 307.382812 167.160156 308.976562 146.070312 312.066406 C 142.503906 312.589844 140.753906 316.402344 140.414062 319.5 C 135.421875 364.890625 132.21875 410.566406 131.011719 456.207031 C 130.84375 462.527344 130.742188 468.835938 130.8125 475.160156 C 130.886719 481.773438 131.378906 488.488281 133.113281 494.875 C 133.875 497.683594 137.6875 497.429688 138.566406 494.871094 Z M 138.566406 494.871094 " fill-opacity="1" fill-rule="nonzero"/><path fill="#ffffff" d="M 293.171875 313.472656 C 290.933594 320.851562 290.464844 328.917969 289.820312 336.601562 C 289.164062 344.476562 288.71875 352.375 288.246094 360.257812 C 287.773438 368.144531 287.34375 376.027344 287.132812 383.925781 C 287.027344 387.796875 286.9375 391.671875 286.859375 395.546875 C 286.78125 399.460938 286.320312 403.601562 286.941406 407.484375 C 288.375 416.507812 298.023438 415.882812 304.976562 415.832031 C 312.917969 415.78125 320.859375 415.722656 328.804688 415.667969 C 344.6875 415.558594 360.570312 415.472656 376.457031 415.203125 C 380.457031 415.132812 384.558594 414.957031 387.507812 411.832031 C 390.5 408.660156 390.472656 404.371094 390.574219 400.300781 C 390.785156 392.363281 390.917969 384.421875 390.980469 376.480469 C 391.101562 360.601562 390.929688 344.71875 390.460938 328.847656 C 390.34375 324.808594 390.214844 320.765625 390.046875 316.730469 C 389.875 312.5 388.796875 308.5 384.921875 306.179688 C 381.621094 304.203125 377.421875 304.136719 373.714844 303.65625 C 369.90625 303.167969 366.101562 302.660156 362.285156 302.199219 C 346.765625 300.328125 331.148438 299.082031 315.507812 299.042969 C 307.980469 299.023438 300.167969 298.726562 292.679688 299.566406 C 287.035156 300.195312 283.675781 303.785156 283.328125 309.480469 C 283.089844 313.445312 283.183594 317.457031 283.117188 321.425781 C 282.976562 329.3125 282.816406 337.195312 282.777344 345.082031 C 282.738281 352.933594 283.757812 360.894531 284.289062 368.738281 C 284.554688 372.597656 285.355469 376.414062 285.996094 380.222656 C 286.449219 382.910156 290.753906 382.785156 291.300781 380.222656 C 294.296875 366.210938 295.925781 351.664062 296.304688 337.339844 C 296.496094 330.027344 296.6875 322.71875 296.882812 315.40625 C 296.929688 313.683594 296.964844 311.960938 297.019531 310.246094 C 297.027344 310.027344 297.148438 309.367188 297.0625 309.15625 C 296.546875 309.828125 296.03125 310.5 295.515625 311.171875 C 295.25 312.515625 294.613281 313.199219 293.597656 313.230469 C 293.582031 313.351562 292.972656 313.246094 293.78125 313.246094 C 294.347656 313.242188 294.917969 313.207031 295.484375 313.191406 C 299.03125 313.085938 302.582031 313.019531 306.132812 312.992188 C 320.308594 312.886719 334.550781 313.203125 348.703125 314.023438 C 355.917969 314.441406 363.144531 314.964844 370.328125 315.765625 C 372.023438 315.957031 373.710938 316.175781 375.402344 316.394531 C 375.667969 316.425781 377.425781 316.683594 376.84375 316.585938 C 377.476562 316.691406 378.199219 316.996094 378.824219 317.03125 C 379.503906 317.066406 378.75 317.136719 378.617188 316.96875 C 378.390625 316.683594 378.066406 316.355469 377.832031 316.074219 C 376.820312 314.851562 377.78125 315.6875 377.605469 316.078125 C 377.613281 316.066406 377.5 315.121094 377.539062 315.984375 C 377.621094 317.820312 377.695312 319.65625 377.765625 321.492188 C 378.324219 335.917969 378.640625 350.355469 378.710938 364.792969 C 378.746094 372.15625 378.71875 379.515625 378.628906 386.882812 C 378.585938 390.492188 378.527344 394.097656 378.453125 397.707031 C 378.414062 399.4375 378.394531 401.167969 378.332031 402.902344 C 378.324219 403.132812 378.332031 404.679688 378.292969 403.925781 C 378.320312 404.472656 377.652344 404.820312 378.410156 404.019531 C 378.527344 403.585938 378.804688 403.304688 379.234375 403.179688 C 379.882812 402.867188 379.957031 402.789062 379.460938 402.949219 C 379.46875 402.964844 378.890625 403.074219 379.480469 402.992188 C 379.160156 403.035156 378.824219 403.027344 378.503906 403.035156 C 377.675781 403.066406 376.84375 403.074219 376.011719 403.089844 C 374.136719 403.128906 372.257812 403.167969 370.382812 403.207031 C 366.773438 403.28125 363.164062 403.351562 359.550781 403.460938 C 352.332031 403.683594 345.113281 403.902344 337.890625 404.125 C 330.527344 404.351562 323.164062 404.574219 315.796875 404.804688 C 312.1875 404.914062 308.578125 405.023438 304.96875 405.136719 C 303.234375 405.1875 301.5 405.246094 299.769531 405.292969 C 299.128906 405.3125 296.421875 405.382812 296.460938 405.097656 C 296.472656 404.992188 297.347656 406.03125 297.171875 405.988281 C 296.957031 405.9375 297.003906 404.957031 296.996094 404.804688 C 296.898438 403.019531 296.964844 401.210938 296.957031 399.421875 C 296.933594 395.835938 296.925781 392.25 296.929688 388.664062 C 296.929688 381.488281 296.933594 374.320312 296.875 367.144531 C 296.753906 352.664062 296.871094 338.183594 296.636719 323.703125 C 296.613281 321.988281 296.648438 320.257812 296.566406 318.546875 C 296.484375 316.855469 295.988281 315.140625 295.671875 313.472656 C 295.425781 312.148438 293.519531 312.320312 293.171875 313.472656 Z M 293.171875 313.472656 " fill-opacity="1" fill-rule="nonzero"/><path fill="#ffffff" d="M 158.613281 395.605469 C 156.414062 399.355469 155.453125 404.011719 154.816406 408.277344 C 154.144531 412.78125 153.71875 417.320312 153.613281 421.875 C 153.527344 425.617188 152.96875 430.550781 155.230469 433.792969 C 157.175781 436.585938 160.679688 437.425781 163.882812 436.746094 C 171.96875 435.023438 172.933594 426.257812 172.53125 419.410156 C 172.253906 414.703125 171.953125 409.996094 171.664062 405.289062 C 171.433594 401.601562 171.445312 397.660156 169.71875 394.296875 C 168.023438 390.992188 164.425781 388.863281 160.761719 390.1875 C 157.664062 391.304688 154.375 395.257812 156.550781 398.582031 C 158.097656 400.9375 161.859375 400.0625 161.914062 397.128906 C 161.921875 396.714844 162.089844 396.15625 162.90625 396.195312 C 163.53125 396.230469 163.929688 396.980469 164.191406 397.527344 C 165.460938 400.199219 165.183594 403.699219 165.367188 406.574219 C 165.644531 410.855469 165.933594 415.132812 166.195312 419.417969 C 166.378906 422.382812 166.804688 426 165.199219 428.683594 C 164.445312 429.941406 162.0625 431.589844 160.59375 430.460938 C 159.578125 429.679688 159.71875 427.597656 159.644531 426.472656 C 159.5 424.390625 159.414062 422.300781 159.402344 420.210938 C 159.371094 416.320312 159.558594 412.425781 159.964844 408.558594 C 160.394531 404.523438 161.179688 400.320312 161.027344 396.265625 C 160.988281 394.996094 159.28125 394.464844 158.613281 395.605469 Z M 158.613281 395.605469 " fill-opacity="1" fill-rule="nonzero"/><path fill="#ffffff" d="M 329.367188 311.859375 C 328.289062 320.210938 327.636719 328.472656 327.265625 336.878906 C 326.90625 345.078125 326.628906 353.28125 326.4375 361.484375 C 326.246094 369.6875 326.183594 377.886719 326.261719 386.09375 C 326.300781 390.121094 326.363281 394.148438 326.441406 398.179688 C 326.480469 400.1875 326.46875 402.210938 326.574219 404.21875 C 326.691406 406.472656 327.078125 407.90625 328.953125 409.257812 C 329.660156 409.765625 330.582031 409.453125 331.175781 408.96875 C 334.152344 406.542969 332.894531 401.144531 332.8125 397.746094 C 332.710938 393.574219 332.636719 389.402344 332.578125 385.230469 C 332.46875 377.171875 332.375 369.113281 332.324219 361.050781 C 332.21875 344.644531 332.773438 328.253906 332.277344 311.859375 C 332.214844 309.9375 329.601562 310.058594 329.367188 311.859375 Z M 329.367188 311.859375 " fill-opacity="1" fill-rule="nonzero"/><path fill="#ffffff" d="M 291.484375 362.570312 C 293.125 363.289062 294.664062 362.96875 296.421875 362.84375 C 298.386719 362.710938 300.351562 362.601562 302.320312 362.492188 C 305.988281 362.28125 309.640625 361.875 313.304688 361.621094 C 320.929688 361.101562 328.570312 360.84375 336.210938 360.855469 C 343.863281 360.863281 351.511719 361.171875 359.148438 361.589844 C 362.828125 361.792969 366.503906 362.054688 370.171875 362.378906 C 372.148438 362.550781 374.125 362.746094 376.097656 362.957031 C 378.160156 363.175781 380.183594 363.71875 381.980469 362.367188 C 383.769531 361.023438 384.125 358.964844 382.648438 357.207031 C 381.167969 355.445312 379.0625 355.488281 376.945312 355.28125 C 374.972656 355.089844 372.996094 354.917969 371.023438 354.757812 C 367.070312 354.445312 363.113281 354.203125 359.152344 354.035156 C 351.511719 353.707031 343.855469 353.796875 336.214844 354.113281 C 328.5625 354.429688 320.921875 355.011719 313.308594 355.855469 C 309.417969 356.285156 305.484375 356.675781 301.636719 357.414062 C 299.703125 357.785156 297.78125 358.195312 295.855469 358.609375 C 294.152344 358.976562 292.53125 359.109375 291.199219 360.285156 C 290.542969 360.855469 290.652344 362.203125 291.484375 362.570312 Z M 291.484375 362.570312 " fill-opacity="1" fill-rule="nonzero"/><g clip-path="url(#d5ae2575cd)"><path fill="#ffffff" d="M 550.15625 503.332031 C 531.191406 494.320312 506.023438 495.730469 485.335938 494.609375 C 462.96875 493.390625 440.585938 492.449219 418.191406 491.777344 C 372.738281 490.414062 327.246094 490.519531 281.789062 491.679688 C 236.550781 492.835938 191.414062 495.183594 146.324219 498.976562 C 123.472656 500.898438 100.644531 502.980469 77.851562 505.476562 C 56.746094 507.78125 34.648438 508.867188 14.308594 515.167969 C 14.339844 515.207031 14.363281 515.25 14.394531 515.292969 C 10.511719 516.894531 9.335938 522.066406 15.066406 523.222656 C 36.191406 527.488281 61.136719 521.753906 82.5625 520.226562 C 104.4375 518.667969 126.320312 517.347656 148.222656 516.304688 C 193.5 514.152344 238.855469 512.777344 284.183594 512.4375 C 327.542969 512.105469 370.914062 512.820312 414.246094 514.25 C 435.828125 514.957031 457.394531 515.917969 478.953125 517.132812 C 500.453125 518.339844 523.488281 521.851562 544.683594 517.042969 C 544.679688 516.972656 544.675781 516.910156 544.667969 516.847656 C 551.472656 514.734375 557.527344 506.84375 550.15625 503.332031 " fill-opacity="1" fill-rule="nonzero"/></g><path fill="#ffffff" d="M 482.328125 537.40625 C 473.675781 527.898438 463.527344 527.3125 451.183594 525.941406 C 437.707031 524.4375 424.132812 523.554688 410.601562 522.65625 C 382.1875 520.765625 353.683594 520.125 325.214844 519.570312 C 297.890625 519.042969 270.363281 519.488281 243.066406 520.753906 C 212.851562 522.152344 182.164062 522.164062 152.136719 525.847656 C 146.804688 526.5 149.335938 532.398438 153.613281 532.617188 C 181.792969 534.066406 210.105469 532.660156 238.320312 534.203125 C 265.734375 535.703125 293.160156 536.851562 320.566406 538.511719 C 347.589844 540.152344 374.550781 542.476562 401.519531 544.855469 C 415.277344 546.070312 429.019531 547.476562 442.78125 548.65625 C 456.480469 549.832031 465.503906 549.066406 478.503906 545.019531 C 481.710938 544.011719 485.378906 540.757812 482.328125 537.40625 " fill-opacity="1" fill-rule="nonzero"/></svg>